<svg width="1183" height="348" viewBox="0 0 1183 348" fill="none" xmlns="http://www.w3.org/2000/svg">
    <path d="M1125.18 56.4245L1114.91 36.1926L1092.85 18.6033L1085.87 8.52614L1074.75 2.06934L1059.52 8.52614L1050.99 18.6033L1037.31 23.8116L1021.3 29.2473L1008.92 40.1859L992.616 44.0434L988.992 58.2364L1125.18 56.4245Z" fill="url(#paint0_linear_27_29)"/>
    <path d="M47.6023 116.215H172.165L173.689 102.52L162.652 93.6059L148.884 85.4668L134.569 73.1836H110.646L95.4001 85.4668L89.2739 94.6992L83.3858 99.002L59.3785 99.4552L47.6023 116.215Z" fill="url(#paint1_linear_27_29)"/>
    <path d="M615.222 237.473L660.632 237.361L706.042 237.248L713.982 212.243C726.383 173.185 728.494 166.48 728.393 166.457C728.341 166.445 724.607 166.49 720.096 166.556L711.892 166.676L705.953 185.365C702.687 195.644 698.599 208.536 696.868 214.012L693.721 223.97L654.472 224.083L615.222 224.196V237.472V237.473Z" fill="white"/>
    <path d="M582.03 255.615H598.404V332.523H609.911V255.615H716.571V332.523H727.635V255.615H743.568V240.567H582.03V255.615Z" fill="white"/>
    <path d="M416.95 244.992H426.687V255.614H436.867V266.236H461.208V277.301H470.502V281.284H422.262V294.561H433.769V332.523H444.834V294.561H476.256V332.523H505.023V322H487.743L487.863 314.365L487.985 306.73L499.271 306.482V294.56H504.471L509.672 294.562L509.539 287.701L509.407 280.84H518.327L518.289 293.343L518.25 305.846L522.745 305.912L527.24 305.979L527.308 319.521L527.372 332.523H555.478V322H537.332V276.415H541.204L545.077 276.416L544.928 271.326L544.779 266.236H555.477V255.639L561.226 255.516L566.976 255.392L567.051 239.57L567.127 223.748H593.539V213.095L574.286 213.194L574.036 203.389H567.427V183.032H577.606V204.275H600.62V213.126H611.684V193.678L598.408 193.776L585.131 193.874V172.409H567.428V160.46H616.949L617.083 154.264L617.217 148.067H598.297L579.377 148.068V137.889H639.124V108.125V78.3622H621.643L621.516 73.6044L621.39 68.8467H527.103L527.185 73.6044L527.267 78.3622L521.677 78.4865L516.087 78.6108V83.5766L516.089 88.5424L511.22 88.404L506.351 88.2656V162.673H496.172V172.852H485.55V183.917H473.158V194.096H462.536V204.718H436.424V194.096H425.307L425.444 180.376L425.581 166.656H407.656V234.37H416.95V244.992ZM554.59 93.6053L559.79 93.7296L564.99 93.8548L565.017 101.49L565.043 109.124H554.59V93.6053Z" fill="white"/>
    <path d="M182.216 102.519H173.689V93.2182H165.163V85.4671H149.661V76.9409H141.135V67.6396H103.153V76.9409H95.4019V85.4671H86.8757V93.9933H53.5451V102.519H44.2439V119.573H182.218V102.519H182.216ZM165.937 111.046H61.2945V102.519H77.7658L94.2372 102.522L93.9709 98.2572L93.7055 93.9933H102.375V85.4671H110.902V81.3336C110.902 79.0596 111.046 77.0537 111.222 76.8765C111.398 76.6993 116.456 76.6587 122.461 76.7883L133.38 77.022V85.4671H148.882V93.9933H157.409V102.519H165.935V111.046H165.937Z" fill="white"/>
    <path d="M331.64 204.237V194.161H322.975L323.501 184.856L305.092 184.857L286.682 184.859V194.161L282.612 194.159L278.543 194.158L278.802 199.198L279.063 204.237L274.152 204.237L269.242 204.236L269.507 208.501L269.773 212.765H260.328L260.329 217.609L260.329 222.454L256.065 222.187L251.801 221.922V231.517L247.925 231.249L244.049 230.98V235.824L244.049 240.669H260.328V231.367H269.629V222.066H278.155V212.765H286.682V204.237H295.208L295.207 199.005L295.206 193.773L304.896 194.011L314.587 194.249V204.237H323.889V212.765H333.19V222.066H342.491V231.367H351.793V240.669L360.514 240.67H369.234L369.119 235.825L369.005 230.98H360.317L360.32 226.717L360.323 222.454L355.67 222.716L351.018 222.979V212.765H341.716V204.237H331.64Z" fill="white"/>
    <path d="M535.171 76.6662L534.951 68.3332L527.393 68.111L519.836 67.8896V84.9985H535.391L535.171 76.6662Z" fill="white"/>
    <path d="M28.6216 310.43L28.7212 314.5L28.8208 318.57L39.7674 318.785L50.713 319V310.431L39.6668 310.43H28.6216Z" fill="white"/>
    <path d="M67.6058 274.582L67.3783 268.962L33.8537 268.76L0.329102 268.559V280.202H67.8341L67.6058 274.582Z" fill="white"/>
    <path d="M641.333 325.159H631.644V332.524H641.333V325.159Z" fill="white"/>
    <path d="M674.277 299.58H651.797V308.106H674.277V299.58Z" fill="white"/>
    <path d="M1059.52 8.56323L1072.5 8.35073L1085.49 8.13912L1085.72 4.06912L1085.96 0H1059.52V8.52619H1050.99V18.6033H1059.52V8.56323Z" fill="white"/>
    <path d="M1092.85 8.52637H1085.87V18.6035H1092.85V8.52637Z" fill="white"/>
    <path d="M1129.86 61.3174L1132.38 61.2362V44.183H1125.4V36.4318H1116.88V27.5177L1112.62 27.7839L1108.35 28.0493V18.6044H1092.85V27.1306H1100.6V36.4327H1109.13V44.1839H1117.65V52.71H996.732V44.1839H1020.58L1020.48 40.5018L1020.37 36.8198L1023.86 36.5923L1027.35 36.3657L1027.09 31.7473L1026.82 27.1297H1050.99V18.6035H1019.99V27.1297H1011.46V35.6559H988.981V45.1008L984.718 44.8354L980.455 44.5692V61.767L1053.9 61.5819C1094.29 61.4805 1128.47 61.3614 1129.86 61.3156L1129.86 61.3174Z" fill="white"/>
    <path d="M1078.12 317.408H1056.42V325.934H1078.12V317.408Z" fill="white"/>
    <path d="M930.697 268.574H766.632V280.201H930.697V268.574Z" fill="white"/>
    <path d="M1004.48 307.331H995.182V247.737L976.579 247.258V297.254H967.277V268.504L962.045 268.732L956.813 268.962L956.588 290.472L956.363 311.982H976.579V337.948L969.215 337.702L961.851 337.455V347.638H1009.91V337.561H995.182V321.283H1011.46V311.982H1019.21V268.574H1004.48V307.331Z" fill="white"/>
    <path d="M157.874 307.331H148.573V247.737L129.97 247.258V297.254H120.668V268.504L115.436 268.732L110.203 268.962L109.979 290.472L109.754 311.982H129.97V337.948L122.606 337.702L115.241 337.455V347.638H163.3V337.561H148.573V321.283H164.85V311.982H172.602V268.574H157.874V307.331Z" fill="white"/>
    <path d="M859.533 318.958H838.604V327.484H859.533V318.958Z" fill="white"/>
    <path d="M1183 268.574H1067.27V280.201H1183V268.574Z" fill="white"/>
    <path d="M1133.16 191.836V201.138H1142.46V211.214H1151.76V222.066H1161.06V231.368H1178.11V222.066H1169.59V211.989H1160.29V201.137L1150.6 201.14L1150.86 196.488L1151.12 191.835H1141.68V181.759H1133.16V173.232H1123.08V162.38H1113.78L1113.68 158.117C1113.63 155.773 1113.54 153.419 1113.48 152.885C1113.42 152.25 1111.92 151.89 1109.13 151.839L1104.86 151.761V142.223L1086.84 142.225L1068.82 142.227V157.729H1059.52V170.906H1050.99V177.189L1046.92 176.954L1042.85 176.72L1042.62 171.488L1042.4 166.255H1033.94V156.179H1023.86V146.877H1013.79V137.576H1004.48V126.724H995.958V116.647H964.178V126.724H954.876V136.801H945.575V146.877H935.498V155.403H925.421V166.255H916.895V175.558H906.818V184.859H897.516V194.161L892.671 194.159L887.826 194.157L888.089 198.809L888.352 203.461H878.912V212.763H868.835V222.065H860.309V231.366H878.912V222.065L883.369 222.066L887.826 222.068L887.564 217.416L887.301 212.764H892.215L897.128 212.767L896.862 208.502L896.597 204.238H907.592V194.162L911.661 194.164L915.73 194.165V185.248L920.575 185.49L925.42 185.732V175.559H935.497V166.257H944.798V156.181H954.875V146.879L959.333 146.881L963.79 146.882L963.534 141.842L963.27 136.803H971.929V126.725H988.982V136.803H996.733V146.879H1005.26V156.956H1015.34V166.257H1025.41V175.559H1034.71V185.636H1050.99V194.938H1059.52V206.565H1069.6V195.787L1064.75 195.557L1059.91 195.326L1059.47 173.234H1069.72L1069.46 167.806L1069.21 162.379L1073.67 162.381L1078.12 162.383V151.531H1095.95V162.383H1105.25V172.459H1114.55V181.761H1123.86V191.838H1133.16L1133.16 191.836Z" fill="white"/>
    <path d="M306.087 328.259H296.01V298.805H286.709V338.336H280.507V318.183H273.531V308.106H265.005V318.183H254.928V327.484H265.132L264.875 332.912L264.617 338.34L268.299 338.337L271.981 338.336V347.637H296.011V338.336L306.475 338.338L306.22 333.404C305.932 327.83 306.287 327.514 312.87 327.494L316.164 327.483V318.182H306.087V328.258V328.259Z" fill="white"/>
    <path d="M820.002 298.805H809.925V308.106H820.002V298.805Z" fill="white"/>
    <path d="M1178.08 299H1168V308.301H1178.08V299Z" fill="white"/>
    <path d="M396.003 268.574H214.621V280.201H396.003V268.574Z" fill="white"/>
    <path d="M786.671 307.331H776.594V315.857H786.671V307.331Z" fill="white"/>
    <path d="M391.352 308.105H368.873V317.408H391.352V308.105Z" fill="white"/>
    <defs>
        <linearGradient id="paint0_linear_27_29" x1="1063.88" y1="-31.8626" x2="1056.56" y2="64.2188" gradientUnits="userSpaceOnUse">
            <stop stop-color="white"/>
            <stop offset="1" stop-color="#3B2BFF"/>
        </linearGradient>
        <linearGradient id="paint1_linear_27_29" x1="47.6023" y1="94.6992" x2="173.689" y2="94.6992" gradientUnits="userSpaceOnUse">
            <stop stop-color="white"/>
            <stop offset="1" stop-color="#3B2BFF"/>
        </linearGradient>
    </defs>
</svg>