<svg width="78" height="77" viewBox="0 0 78 77" fill="none" xmlns="http://www.w3.org/2000/svg">
    <path d="M41.1365 0.161232C38.7496 -0.0166608 36.1023 -0.0534599 35.2467 0.0814933C29.4437 1.00776 26.2384 1.9647 21.6072 4.14235C11.4953 8.90252 3.14419 19.3553 0.83167 30.1576C-2.28063 44.7019 3.53478 60.5834 15.054 68.9996C27.4102 78.0353 43.0089 79.5075 56.8344 72.9562C63.4496 69.8154 70.7405 62.6323 73.8776 56.1422C86.209 30.6852 69.5874 2.27141 41.1365 0.161232ZM52.2032 57.8353C51.6452 58.7248 50.7338 59.2155 49.6488 59.2155C47.5161 59.2032 32.5188 51.1796 32.277 49.9099C32.1716 49.3946 34.757 46.1987 38.0119 42.8126C43.3003 37.304 44.7758 35.292 43.5234 35.292C43.3002 35.292 40.6529 37.3654 37.6398 39.8988C34.6267 42.4322 30.9441 45.3644 29.4437 46.4072L26.722 48.3027L20.9128 45.3276C13.8884 41.7329 13.4731 40.6656 18.1973 38.4204C27.3978 34.0529 54.3669 23.091 55.6441 23.2014C56.4624 23.275 57.4172 23.7903 57.7706 24.3424C58.5518 25.5815 53.5485 55.6944 52.2032 57.8353Z" fill="white"/>
</svg>