<svg width="76" height="68" viewBox="0 0 76 68" fill="none" xmlns="http://www.w3.org/2000/svg">
    <path fill-rule="evenodd" clip-rule="evenodd" d="M0.00567941 0.227273C0.102232 0.352364 1.25828 1.84545 2.57464 3.54545C10.8798 14.2705 27.7052 36.0156 28.1189 36.5585L28.6138 37.2082L25.7991 40.3767C24.2511 42.1196 18.352 48.7818 12.69 55.1818C7.02804 61.5818 2.14384 67.084 1.83631 67.4091L1.27708 68L7.16348 67.9996L13.0499 67.9991L23.5234 56.1727C31.4559 47.2156 34.0532 44.3925 34.2288 44.5365C34.3565 44.6411 38.5156 49.9631 43.4713 56.3633L52.4817 68H64.2408H76L75.6374 67.5C75.4378 67.2251 73.6063 64.8318 71.5672 62.1818C69.5282 59.5318 66.2968 55.3182 64.3864 52.8182C59.502 46.4262 53.4286 38.4911 49.4631 33.3204C47.6045 30.8965 46.1278 28.8102 46.182 28.684C46.2362 28.5578 50.2461 23.9876 55.0932 18.528C67.7536 4.26745 71.0937 0.484364 71.2511 0.227273C71.3612 0.0472727 70.1825 0 65.5955 0H59.8009L50.2449 10.8085C44.9891 16.7533 40.6343 21.6009 40.5674 21.5813C40.438 21.5433 39.13 19.8487 29.8379 7.68182L23.9712 0H11.9006C2.27338 0 -0.134359 0.046 0.00567941 0.227273ZM23.576 10.682C25.3117 12.9569 29.0222 17.8045 31.8214 21.4545C34.6205 25.1045 38.7561 30.5025 41.0111 33.4502C43.2663 36.3978 48.7469 43.5569 53.1907 49.3593C57.6344 55.1616 61.4734 60.1749 61.722 60.5L62.1742 61.0909H58.9564H55.7385L49.5132 53.0455C46.0893 48.6205 42.4901 43.9773 41.515 42.7273C40.5399 41.4773 37.3371 37.3455 34.3974 33.5455C31.4579 29.7455 25.9151 22.5864 22.0805 17.6364C18.2458 12.6864 14.744 8.166 14.2986 7.59091L13.489 6.54545L16.9547 6.54564L20.4203 6.54582L23.576 10.682Z" fill="white"/>
</svg>